<svg width="25.000000" height="21.000000" viewBox="0 0 25 21" fill="none" xmlns="http://www.w3.org/2000/svg" xmlns:xlink="http://www.w3.org/1999/xlink">
	<desc>
			Created with Pixso.
	</desc>
	<defs/>
	<path id="Vector" d="M15.81 12.35C15.81 14.27 14.33 15.82 12.5 15.82C10.66 15.82 9.18 14.27 9.18 12.35C9.18 10.43 10.66 8.87 12.5 8.87C14.33 8.87 15.81 10.43 15.81 12.35ZM22.6 3.64C23.92 3.64 25 4.77 25 6.15L25 12.73L25 18.32C25 19.8 23.85 21 22.44 21L2.55 21C1.14 21 0 19.8 0 18.32L0 12.73L0 6.15C0 4.77 1.07 3.64 2.39 3.64L7.19 3.64L7.41 2.64C7.76 1.09 9.08 0 10.6 0L14.4 0C15.92 0 17.24 1.09 17.58 2.64L17.8 3.64L22.6 3.64ZM5 7.27C5 6.57 4.46 6.01 3.79 6.01C3.13 6.01 2.59 6.57 2.59 7.27C2.59 7.96 3.13 8.52 3.79 8.52C4.46 8.53 5 7.96 5 7.27ZM18.41 12.35C18.41 8.93 15.76 6.15 12.5 6.15C9.23 6.15 6.58 8.93 6.58 12.35C6.58 15.77 9.23 18.54 12.5 18.54C15.76 18.54 18.41 15.77 18.41 12.35Z" fill="#FFFFFF" fill-opacity="1.000000" fill-rule="nonzero"/>
</svg>
