<svg width="31.899765" height="36.924316" viewBox="0 0 31.8998 36.9243" fill="none" xmlns="http://www.w3.org/2000/svg" xmlns:xlink="http://www.w3.org/1999/xlink">
	<desc>
			Created with Pixso.
	</desc>
	<defs/>
	<path id="Vector" d="M24.252 10.4385L23.5842 10.6229L24.0937 10.1491C24.1633 10.0844 25.8457 8.55859 29.8188 8.21063C30.0112 8.19379 30.2082 8.18231 30.4057 8.17163C31.7595 3.55334 31.8998 0 31.8998 0C31.8998 0 24.9731 1.53046 18.5994 6.42877C19.139 10.8435 17.8393 12.985 17.7744 13.0884L17.4025 13.6795L17.4658 12.9808C17.703 10.3596 17.4888 8.60577 17.2368 7.53827C16.0743 8.54028 14.9492 9.66205 13.9099 10.9176C13.8652 10.9717 13.8216 11.0265 13.7774 11.0811C14.5191 15.905 13.1039 18.2368 13.036 18.3446L12.6641 18.9357L12.7272 18.2372C12.965 15.6088 12.749 13.8528 12.4961 12.7863C8.30682 18.8339 6.9969 25.7416 6.59843 28.9525L0 36.9243L4.19473 35.0859L8.16716 30.2867C11.286 29.309 17.9957 26.7085 23.1955 21.2318C22.7487 21.2066 22.1937 21.2081 21.5237 21.2668C20.4272 21.3628 19.2128 21.5936 17.9144 21.9524L17.2467 22.137L17.756 21.663C17.8257 21.5982 19.5079 20.0721 23.4811 19.7241C23.8354 19.6931 24.201 19.6761 24.5718 19.6661C27.1468 16.497 28.8211 12.9493 29.9075 9.74792C29.4103 9.69727 28.7346 9.67639 27.8614 9.75293C26.7649 9.84912 25.5505 10.0797 24.252 10.4385ZM8.82181 28.8893L6.95644 29.1539L18.9078 15.212L8.82181 28.8893Z" fill="#FFFFFF" fill-opacity="1.000000" fill-rule="nonzero"/>
</svg>
