<svg width="25.000000" height="21.000000" viewBox="0 0 25 21" fill="none" xmlns="http://www.w3.org/2000/svg" xmlns:xlink="http://www.w3.org/1999/xlink">
	<desc>
			Created with Pixso.
	</desc>
	<defs/>
	<path id="Vector" d="M15.8162 12.3526C15.8162 14.2725 14.3326 15.8266 12.5 15.8266C10.6674 15.8266 9.18378 14.2725 9.18378 12.3526C9.18378 10.4328 10.6674 8.87863 12.5 8.87863C14.3326 8.87863 15.8162 10.4328 15.8162 12.3526ZM22.6027 3.64609C23.9271 3.64609 25 4.77005 25 6.1575L25 12.7398L25 18.3219C25 19.8008 23.8552 21 22.4435 21L2.55646 21C1.14478 21 0 19.8008 0 18.3219L0 12.7344L0 6.1575C0 4.77005 1.07288 3.64609 2.39734 3.64609L7.19202 3.64609L7.41785 2.64584C7.76178 1.09705 9.08112 0 10.6006 0L14.4045 0C15.924 0 17.2433 1.09705 17.5873 2.64584L17.808 3.64609L22.6027 3.64609ZM5 7.27069C5 6.57697 4.461 6.0123 3.79877 6.0123C3.13141 6.0123 2.59241 6.57697 2.59241 7.27069C2.59241 7.96442 3.13141 8.52905 3.79364 8.52905C4.461 8.53445 5 7.96979 5 7.27069ZM18.4138 12.3526C18.4138 8.9324 15.7649 6.1575 12.5 6.1575C9.23511 6.1575 6.58624 8.9324 6.58624 12.3526C6.58624 15.7729 9.23511 18.5478 12.5 18.5478C15.7649 18.5478 18.4138 15.7729 18.4138 12.3526Z" fill="#0057FF" fill-opacity="1.000000" fill-rule="nonzero"/>
</svg>
