<svg width="16.000000" height="16.000000" viewBox="0 0 16 16" fill="none" xmlns="http://www.w3.org/2000/svg" xmlns:xlink="http://www.w3.org/1999/xlink">
	<desc>
			Created with Pixso.
	</desc>
	<defs/>
	<path id="Vector" d="M14.76 1.23C13.97 0.43 12.91 0 11.78 0C10.66 0 9.6 0.43 8.81 1.23L5.48 4.55L6.19 5.25L9.51 1.93C10.12 1.32 10.92 0.99 11.78 0.99C12.64 0.99 13.45 1.32 14.06 1.93C14.67 2.54 15 3.35 15 4.21C15 5.07 14.67 5.87 14.06 6.48L10.74 9.8L11.44 10.51L14.76 7.18C15.56 6.39 16 5.33 16 4.21C16 3.08 15.56 2.02 14.76 1.23Z" fill="#ABACB1" fillOpacity="1.000000" fillRule="nonzero"/>
	<path id="Vector" d="M6.48 14.06C5.87 14.67 5.07 15 4.21 15C3.35 15 2.54 14.67 1.93 14.06C1.32 13.45 0.99 12.64 0.99 11.78C0.99 10.92 1.32 10.12 1.93 9.51L5.25 6.19L4.55 5.48L1.23 8.81C0.43 9.6 0 10.66 0 11.78C0 12.91 0.43 13.97 1.23 14.76C2.02 15.56 3.08 16 4.21 16C5.33 16 6.39 15.56 7.18 14.76L10.51 11.44L9.8 10.74L6.48 14.06Z" fill="#ABACB1" fillOpacity="1.000000" fillRule="nonzero"/>
	<path id="Vector" d="M10.62 4.67L11.32 5.37L5.37 11.32L4.67 10.62L10.62 4.67Z" fill="#ABACB1" fillOpacity="1.000000" fillRule="nonzero"/>
</svg>
